<svg width="1529" height="614" viewBox="0 0 1529 614" fill="none" xmlns="http://www.w3.org/2000/svg">
<circle cx="696.631" cy="438.631" r="163.298" transform="rotate(-27.8167 696.631 438.631)" fill="#FFC700"/>
<g filter="url(#filter0_f_72_13)">
<circle cx="696.631" cy="438.631" r="163.298" transform="rotate(-27.8167 696.631 438.631)" fill="#FFC700"/>
</g>
<path d="M411.76 294.241C424.825 280.097 447.175 280.097 460.24 294.241L762.418 621.358C781.942 642.494 766.951 676.75 738.178 676.75H133.822C105.049 676.75 90.0576 642.494 109.582 621.358L411.76 294.241Z" fill="#E0E0E0"/>
<path d="M988.152 40.4956C1001.24 21.1206 1029.76 21.1206 1042.85 40.4956L1425.45 607.031C1440.25 628.948 1424.54 658.5 1398.1 658.5H632.902C606.456 658.5 590.753 628.948 605.554 607.031L988.152 40.4956Z" fill="#E0E0E0"/>
<defs>
<filter id="filter0_f_72_13" x="412.399" y="154.399" width="568.462" height="568.462" filterUnits="userSpaceOnUse" color-interpolation-filters="sRGB">
<feFlood flood-opacity="0" result="BackgroundImageFix"/>
<feBlend mode="normal" in="SourceGraphic" in2="BackgroundImageFix" result="shape"/>
<feGaussianBlur stdDeviation="60.45" result="effect1_foregroundBlur_72_13"/>
</filter>
</defs>
</svg>
