<svg width="764" height="343" viewBox="0 0 764 170" fill="none" xmlns="http://www.w3.org/2000/svg">
<circle cx="368.5" cy="131.5" r="81.5" fill="#D8C200"/>
<path d="M507.173 9.13809C511.17 4.37186 518.502 4.37185 522.498 9.13809L716.561 240.569C722.017 247.077 717.391 256.994 708.898 256.994H320.773C312.281 256.994 307.654 247.077 313.111 240.569L507.173 9.13809Z" fill="url(#paint0_linear_22_14)"/>
<path d="M204.833 46.1547C208.83 41.382 216.17 41.382 220.167 46.1547L382.779 240.33C388.23 246.838 383.602 256.75 375.112 256.75H49.8876C41.3979 256.75 36.7702 246.838 42.221 240.33L204.833 46.1547Z" fill="url(#paint1_linear_22_14)"/>
<defs>
<linearGradient id="paint0_linear_22_14" x1="440.135" y1="95.8146" x2="727.635" y2="254.315" gradientUnits="userSpaceOnUse">
<stop offset="0.171875" stop-color="#A59A66"/>
<stop offset="0.796875" stop-color="#B9B18B" stop-opacity="0.19"/>
</linearGradient>
<linearGradient id="paint1_linear_22_14" x1="424.755" y1="36.7402" x2="-0.135784" y2="256.145" gradientUnits="userSpaceOnUse">
<stop offset="0.447917" stop-color="#BBB491"/>
<stop offset="0.807292" stop-color="#A9A9A9" stop-opacity="0"/>
</linearGradient>
</defs>
</svg>
